<?xml version="1.0" encoding="utf-8" standalone="no"?>
<!DOCTYPE svg PUBLIC "-//W3C//DTD SVG 1.1//EN"
  "http://www.w3.org/Graphics/SVG/1.1/DTD/svg11.dtd">
<svg xmlns:xlink="http://www.w3.org/1999/xlink" width="460.8pt" height="345.6pt" viewBox="0 0 460.8 345.6" xmlns="http://www.w3.org/2000/svg" version="1.1">
 <metadata>
  <rdf:RDF xmlns:dc="http://purl.org/dc/elements/1.1/" xmlns:cc="http://creativecommons.org/ns#" xmlns:rdf="http://www.w3.org/1999/02/22-rdf-syntax-ns#">
   <cc:Work>
    <dc:type rdf:resource="http://purl.org/dc/dcmitype/StillImage"/>
    <dc:date>2023-08-03T15:12:16.760847</dc:date>
    <dc:format>image/svg+xml</dc:format>
    <dc:creator>
     <cc:Agent>
      <dc:title>Matplotlib v3.7.2, https://matplotlib.org/</dc:title>
     </cc:Agent>
    </dc:creator>
   </cc:Work>
  </rdf:RDF>
 </metadata>
 <defs>
  <style type="text/css">*{stroke-linejoin: round; stroke-linecap: butt}</style>
 </defs>
 <g id="figure_1">
  <g id="patch_1">
   <path d="M 0 345.6 
L 460.8 345.6 
L 460.8 0 
L 0 0 
z
" style="fill: #ffffff"/>
  </g>
  <g id="axes_1">
   <g id="patch_2">
    <path d="M 47.18 302.2 
L 450 302.2 
L 450 10.8 
L 47.18 10.8 
z
" style="fill: #ffffff"/>
   </g>
   <g id="PathCollection_1">
    <defs>
     <path id="m3349084706" d="M -3 3 
L 3 -3 
M -3 -3 
L 3 3 
" style="stroke: #000000; stroke-width: 1.5"/>
    </defs>
    <g clip-path="url(#p7c1bd3b626)">
     <use xlink:href="#m3349084706" x="65.49" y="288.954545" style="stroke: #000000; stroke-width: 1.5"/>
     <use xlink:href="#m3349084706" x="70.309211" y="288.954545" style="stroke: #000000; stroke-width: 1.5"/>
     <use xlink:href="#m3349084706" x="75.126656" y="288.954545" style="stroke: #000000; stroke-width: 1.5"/>
     <use xlink:href="#m3349084706" x="79.945868" y="288.954545" style="stroke: #000000; stroke-width: 1.5"/>
     <use xlink:href="#m3349084706" x="84.763312" y="288.954545" style="stroke: #000000; stroke-width: 1.5"/>
     <use xlink:href="#m3349084706" x="89.582524" y="288.954545" style="stroke: #000000; stroke-width: 1.5"/>
     <use xlink:href="#m3349084706" x="94.401735" y="288.954545" style="stroke: #000000; stroke-width: 1.5"/>
     <use xlink:href="#m3349084706" x="99.21918" y="288.954545" style="stroke: #000000; stroke-width: 1.5"/>
     <use xlink:href="#m3349084706" x="104.038391" y="288.954545" style="stroke: #000000; stroke-width: 1.5"/>
     <use xlink:href="#m3349084706" x="108.855836" y="288.954545" style="stroke: #000000; stroke-width: 1.5"/>
     <use xlink:href="#m3349084706" x="113.675047" y="288.954545" style="stroke: #000000; stroke-width: 1.5"/>
     <use xlink:href="#m3349084706" x="118.492492" y="288.954545" style="stroke: #000000; stroke-width: 1.5"/>
     <use xlink:href="#m3349084706" x="123.311703" y="24.045455" style="stroke: #000000; stroke-width: 1.5"/>
     <use xlink:href="#m3349084706" x="128.129148" y="288.954545" style="stroke: #000000; stroke-width: 1.5"/>
     <use xlink:href="#m3349084706" x="132.94836" y="288.954545" style="stroke: #000000; stroke-width: 1.5"/>
     <use xlink:href="#m3349084706" x="137.765804" y="288.954545" style="stroke: #000000; stroke-width: 1.5"/>
     <use xlink:href="#m3349084706" x="142.585016" y="288.954545" style="stroke: #000000; stroke-width: 1.5"/>
     <use xlink:href="#m3349084706" x="147.404227" y="24.045455" style="stroke: #000000; stroke-width: 1.5"/>
     <use xlink:href="#m3349084706" x="152.221672" y="288.954545" style="stroke: #000000; stroke-width: 1.5"/>
     <use xlink:href="#m3349084706" x="157.040883" y="288.954545" style="stroke: #000000; stroke-width: 1.5"/>
     <use xlink:href="#m3349084706" x="161.858328" y="288.954545" style="stroke: #000000; stroke-width: 1.5"/>
     <use xlink:href="#m3349084706" x="166.677539" y="288.954545" style="stroke: #000000; stroke-width: 1.5"/>
     <use xlink:href="#m3349084706" x="171.494984" y="288.954545" style="stroke: #000000; stroke-width: 1.5"/>
     <use xlink:href="#m3349084706" x="176.314196" y="288.954545" style="stroke: #000000; stroke-width: 1.5"/>
     <use xlink:href="#m3349084706" x="181.13164" y="288.954545" style="stroke: #000000; stroke-width: 1.5"/>
     <use xlink:href="#m3349084706" x="185.950852" y="288.954545" style="stroke: #000000; stroke-width: 1.5"/>
     <use xlink:href="#m3349084706" x="190.770063" y="288.954545" style="stroke: #000000; stroke-width: 1.5"/>
     <use xlink:href="#m3349084706" x="195.587508" y="288.954545" style="stroke: #000000; stroke-width: 1.5"/>
     <use xlink:href="#m3349084706" x="200.406719" y="288.954545" style="stroke: #000000; stroke-width: 1.5"/>
     <use xlink:href="#m3349084706" x="205.224164" y="24.045455" style="stroke: #000000; stroke-width: 1.5"/>
     <use xlink:href="#m3349084706" x="210.043375" y="288.954545" style="stroke: #000000; stroke-width: 1.5"/>
     <use xlink:href="#m3349084706" x="214.86082" y="288.954545" style="stroke: #000000; stroke-width: 1.5"/>
     <use xlink:href="#m3349084706" x="219.680032" y="288.954545" style="stroke: #000000; stroke-width: 1.5"/>
     <use xlink:href="#m3349084706" x="224.497476" y="288.954545" style="stroke: #000000; stroke-width: 1.5"/>
     <use xlink:href="#m3349084706" x="229.316688" y="288.954545" style="stroke: #000000; stroke-width: 1.5"/>
     <use xlink:href="#m3349084706" x="234.135899" y="288.954545" style="stroke: #000000; stroke-width: 1.5"/>
     <use xlink:href="#m3349084706" x="238.953344" y="288.954545" style="stroke: #000000; stroke-width: 1.5"/>
     <use xlink:href="#m3349084706" x="243.772555" y="288.954545" style="stroke: #000000; stroke-width: 1.5"/>
     <use xlink:href="#m3349084706" x="248.59" y="288.954545" style="stroke: #000000; stroke-width: 1.5"/>
     <use xlink:href="#m3349084706" x="253.409211" y="288.954545" style="stroke: #000000; stroke-width: 1.5"/>
     <use xlink:href="#m3349084706" x="258.226656" y="288.954545" style="stroke: #000000; stroke-width: 1.5"/>
     <use xlink:href="#m3349084706" x="263.045868" y="288.954545" style="stroke: #000000; stroke-width: 1.5"/>
     <use xlink:href="#m3349084706" x="267.863312" y="288.954545" style="stroke: #000000; stroke-width: 1.5"/>
     <use xlink:href="#m3349084706" x="272.682524" y="288.954545" style="stroke: #000000; stroke-width: 1.5"/>
     <use xlink:href="#m3349084706" x="277.499968" y="288.954545" style="stroke: #000000; stroke-width: 1.5"/>
     <use xlink:href="#m3349084706" x="282.31918" y="288.954545" style="stroke: #000000; stroke-width: 1.5"/>
     <use xlink:href="#m3349084706" x="287.138391" y="288.954545" style="stroke: #000000; stroke-width: 1.5"/>
     <use xlink:href="#m3349084706" x="291.955836" y="288.954545" style="stroke: #000000; stroke-width: 1.5"/>
     <use xlink:href="#m3349084706" x="296.775047" y="288.954545" style="stroke: #000000; stroke-width: 1.5"/>
     <use xlink:href="#m3349084706" x="301.592492" y="288.954545" style="stroke: #000000; stroke-width: 1.5"/>
     <use xlink:href="#m3349084706" x="306.411703" y="288.954545" style="stroke: #000000; stroke-width: 1.5"/>
     <use xlink:href="#m3349084706" x="311.229148" y="288.954545" style="stroke: #000000; stroke-width: 1.5"/>
     <use xlink:href="#m3349084706" x="316.04836" y="288.954545" style="stroke: #000000; stroke-width: 1.5"/>
     <use xlink:href="#m3349084706" x="320.865804" y="288.954545" style="stroke: #000000; stroke-width: 1.5"/>
     <use xlink:href="#m3349084706" x="325.685016" y="288.954545" style="stroke: #000000; stroke-width: 1.5"/>
     <use xlink:href="#m3349084706" x="330.504227" y="288.954545" style="stroke: #000000; stroke-width: 1.5"/>
     <use xlink:href="#m3349084706" x="335.321672" y="288.954545" style="stroke: #000000; stroke-width: 1.5"/>
     <use xlink:href="#m3349084706" x="340.140883" y="288.954545" style="stroke: #000000; stroke-width: 1.5"/>
     <use xlink:href="#m3349084706" x="344.958328" y="288.954545" style="stroke: #000000; stroke-width: 1.5"/>
     <use xlink:href="#m3349084706" x="349.777539" y="288.954545" style="stroke: #000000; stroke-width: 1.5"/>
     <use xlink:href="#m3349084706" x="354.594984" y="288.954545" style="stroke: #000000; stroke-width: 1.5"/>
     <use xlink:href="#m3349084706" x="359.414196" y="288.954545" style="stroke: #000000; stroke-width: 1.5"/>
     <use xlink:href="#m3349084706" x="364.23164" y="288.954545" style="stroke: #000000; stroke-width: 1.5"/>
     <use xlink:href="#m3349084706" x="369.050852" y="288.954545" style="stroke: #000000; stroke-width: 1.5"/>
     <use xlink:href="#m3349084706" x="373.870063" y="288.954545" style="stroke: #000000; stroke-width: 1.5"/>
     <use xlink:href="#m3349084706" x="378.687508" y="288.954545" style="stroke: #000000; stroke-width: 1.5"/>
     <use xlink:href="#m3349084706" x="383.506719" y="288.954545" style="stroke: #000000; stroke-width: 1.5"/>
     <use xlink:href="#m3349084706" x="388.324164" y="288.954545" style="stroke: #000000; stroke-width: 1.5"/>
     <use xlink:href="#m3349084706" x="393.143375" y="288.954545" style="stroke: #000000; stroke-width: 1.5"/>
     <use xlink:href="#m3349084706" x="397.96082" y="288.954545" style="stroke: #000000; stroke-width: 1.5"/>
     <use xlink:href="#m3349084706" x="402.780032" y="24.045455" style="stroke: #000000; stroke-width: 1.5"/>
     <use xlink:href="#m3349084706" x="407.597476" y="288.954545" style="stroke: #000000; stroke-width: 1.5"/>
     <use xlink:href="#m3349084706" x="412.416688" y="288.954545" style="stroke: #000000; stroke-width: 1.5"/>
     <use xlink:href="#m3349084706" x="417.234132" y="288.954545" style="stroke: #000000; stroke-width: 1.5"/>
     <use xlink:href="#m3349084706" x="422.053344" y="288.954545" style="stroke: #000000; stroke-width: 1.5"/>
     <use xlink:href="#m3349084706" x="426.872555" y="288.954545" style="stroke: #000000; stroke-width: 1.5"/>
     <use xlink:href="#m3349084706" x="431.69" y="288.954545" style="stroke: #000000; stroke-width: 1.5"/>
    </g>
   </g>
   <g id="matplotlib.axis_1">
    <g id="xtick_1">
     <g id="line2d_1">
      <defs>
       <path id="md274de8600" d="M 0 0 
L 0 3.5 
" style="stroke: #000000; stroke-width: 0.8"/>
      </defs>
      <g>
       <use xlink:href="#md274de8600" x="61.656536" y="302.2" style="stroke: #000000; stroke-width: 0.8"/>
      </g>
     </g>
     <g id="text_1">
      <!-- 24.0 -->
      <g transform="translate(48.853802 317.938203) scale(0.115 -0.115)">
       <defs>
        <path id="DejaVuSans-32" d="M 1228 531 
L 3431 531 
L 3431 0 
L 469 0 
L 469 531 
Q 828 903 1448 1529 
Q 2069 2156 2228 2338 
Q 2531 2678 2651 2914 
Q 2772 3150 2772 3378 
Q 2772 3750 2511 3984 
Q 2250 4219 1831 4219 
Q 1534 4219 1204 4116 
Q 875 4013 500 3803 
L 500 4441 
Q 881 4594 1212 4672 
Q 1544 4750 1819 4750 
Q 2544 4750 2975 4387 
Q 3406 4025 3406 3419 
Q 3406 3131 3298 2873 
Q 3191 2616 2906 2266 
Q 2828 2175 2409 1742 
Q 1991 1309 1228 531 
z
" transform="scale(0.015625)"/>
        <path id="DejaVuSans-34" d="M 2419 4116 
L 825 1625 
L 2419 1625 
L 2419 4116 
z
M 2253 4666 
L 3047 4666 
L 3047 1625 
L 3713 1625 
L 3713 1100 
L 3047 1100 
L 3047 0 
L 2419 0 
L 2419 1100 
L 313 1100 
L 313 1709 
L 2253 4666 
z
" transform="scale(0.015625)"/>
        <path id="DejaVuSans-2e" d="M 684 794 
L 1344 794 
L 1344 0 
L 684 0 
L 684 794 
z
" transform="scale(0.015625)"/>
        <path id="DejaVuSans-30" d="M 2034 4250 
Q 1547 4250 1301 3770 
Q 1056 3291 1056 2328 
Q 1056 1369 1301 889 
Q 1547 409 2034 409 
Q 2525 409 2770 889 
Q 3016 1369 3016 2328 
Q 3016 3291 2770 3770 
Q 2525 4250 2034 4250 
z
M 2034 4750 
Q 2819 4750 3233 4129 
Q 3647 3509 3647 2328 
Q 3647 1150 3233 529 
Q 2819 -91 2034 -91 
Q 1250 -91 836 529 
Q 422 1150 422 2328 
Q 422 3509 836 4129 
Q 1250 4750 2034 4750 
z
" transform="scale(0.015625)"/>
       </defs>
       <use xlink:href="#DejaVuSans-32"/>
       <use xlink:href="#DejaVuSans-34" x="63.623047"/>
       <use xlink:href="#DejaVuSans-2e" x="127.246094"/>
       <use xlink:href="#DejaVuSans-30" x="159.033203"/>
      </g>
     </g>
    </g>
    <g id="xtick_2">
     <g id="line2d_2">
      <g>
       <use xlink:href="#md274de8600" x="114.653729" y="302.2" style="stroke: #000000; stroke-width: 0.8"/>
      </g>
     </g>
     <g id="text_2">
      <!-- 24.5 -->
      <g transform="translate(101.850994 317.938203) scale(0.115 -0.115)">
       <defs>
        <path id="DejaVuSans-35" d="M 691 4666 
L 3169 4666 
L 3169 4134 
L 1269 4134 
L 1269 2991 
Q 1406 3038 1543 3061 
Q 1681 3084 1819 3084 
Q 2600 3084 3056 2656 
Q 3513 2228 3513 1497 
Q 3513 744 3044 326 
Q 2575 -91 1722 -91 
Q 1428 -91 1123 -41 
Q 819 9 494 109 
L 494 744 
Q 775 591 1075 516 
Q 1375 441 1709 441 
Q 2250 441 2565 725 
Q 2881 1009 2881 1497 
Q 2881 1984 2565 2268 
Q 2250 2553 1709 2553 
Q 1456 2553 1204 2497 
Q 953 2441 691 2322 
L 691 4666 
z
" transform="scale(0.015625)"/>
       </defs>
       <use xlink:href="#DejaVuSans-32"/>
       <use xlink:href="#DejaVuSans-34" x="63.623047"/>
       <use xlink:href="#DejaVuSans-2e" x="127.246094"/>
       <use xlink:href="#DejaVuSans-35" x="159.033203"/>
      </g>
     </g>
    </g>
    <g id="xtick_3">
     <g id="line2d_3">
      <g>
       <use xlink:href="#md274de8600" x="167.650921" y="302.2" style="stroke: #000000; stroke-width: 0.8"/>
      </g>
     </g>
     <g id="text_3">
      <!-- 25.0 -->
      <g transform="translate(154.848187 317.938203) scale(0.115 -0.115)">
       <use xlink:href="#DejaVuSans-32"/>
       <use xlink:href="#DejaVuSans-35" x="63.623047"/>
       <use xlink:href="#DejaVuSans-2e" x="127.246094"/>
       <use xlink:href="#DejaVuSans-30" x="159.033203"/>
      </g>
     </g>
    </g>
    <g id="xtick_4">
     <g id="line2d_4">
      <g>
       <use xlink:href="#md274de8600" x="220.648114" y="302.2" style="stroke: #000000; stroke-width: 0.8"/>
      </g>
     </g>
     <g id="text_4">
      <!-- 25.5 -->
      <g transform="translate(207.845379 317.938203) scale(0.115 -0.115)">
       <use xlink:href="#DejaVuSans-32"/>
       <use xlink:href="#DejaVuSans-35" x="63.623047"/>
       <use xlink:href="#DejaVuSans-2e" x="127.246094"/>
       <use xlink:href="#DejaVuSans-35" x="159.033203"/>
      </g>
     </g>
    </g>
    <g id="xtick_5">
     <g id="line2d_5">
      <g>
       <use xlink:href="#md274de8600" x="273.645306" y="302.2" style="stroke: #000000; stroke-width: 0.8"/>
      </g>
     </g>
     <g id="text_5">
      <!-- 26.0 -->
      <g transform="translate(260.842572 317.938203) scale(0.115 -0.115)">
       <defs>
        <path id="DejaVuSans-36" d="M 2113 2584 
Q 1688 2584 1439 2293 
Q 1191 2003 1191 1497 
Q 1191 994 1439 701 
Q 1688 409 2113 409 
Q 2538 409 2786 701 
Q 3034 994 3034 1497 
Q 3034 2003 2786 2293 
Q 2538 2584 2113 2584 
z
M 3366 4563 
L 3366 3988 
Q 3128 4100 2886 4159 
Q 2644 4219 2406 4219 
Q 1781 4219 1451 3797 
Q 1122 3375 1075 2522 
Q 1259 2794 1537 2939 
Q 1816 3084 2150 3084 
Q 2853 3084 3261 2657 
Q 3669 2231 3669 1497 
Q 3669 778 3244 343 
Q 2819 -91 2113 -91 
Q 1303 -91 875 529 
Q 447 1150 447 2328 
Q 447 3434 972 4092 
Q 1497 4750 2381 4750 
Q 2619 4750 2861 4703 
Q 3103 4656 3366 4563 
z
" transform="scale(0.015625)"/>
       </defs>
       <use xlink:href="#DejaVuSans-32"/>
       <use xlink:href="#DejaVuSans-36" x="63.623047"/>
       <use xlink:href="#DejaVuSans-2e" x="127.246094"/>
       <use xlink:href="#DejaVuSans-30" x="159.033203"/>
      </g>
     </g>
    </g>
    <g id="xtick_6">
     <g id="line2d_6">
      <g>
       <use xlink:href="#md274de8600" x="326.642498" y="302.2" style="stroke: #000000; stroke-width: 0.8"/>
      </g>
     </g>
     <g id="text_6">
      <!-- 26.5 -->
      <g transform="translate(313.839764 317.938203) scale(0.115 -0.115)">
       <use xlink:href="#DejaVuSans-32"/>
       <use xlink:href="#DejaVuSans-36" x="63.623047"/>
       <use xlink:href="#DejaVuSans-2e" x="127.246094"/>
       <use xlink:href="#DejaVuSans-35" x="159.033203"/>
      </g>
     </g>
    </g>
    <g id="xtick_7">
     <g id="line2d_7">
      <g>
       <use xlink:href="#md274de8600" x="379.639691" y="302.2" style="stroke: #000000; stroke-width: 0.8"/>
      </g>
     </g>
     <g id="text_7">
      <!-- 27.0 -->
      <g transform="translate(366.836956 317.938203) scale(0.115 -0.115)">
       <defs>
        <path id="DejaVuSans-37" d="M 525 4666 
L 3525 4666 
L 3525 4397 
L 1831 0 
L 1172 0 
L 2766 4134 
L 525 4134 
L 525 4666 
z
" transform="scale(0.015625)"/>
       </defs>
       <use xlink:href="#DejaVuSans-32"/>
       <use xlink:href="#DejaVuSans-37" x="63.623047"/>
       <use xlink:href="#DejaVuSans-2e" x="127.246094"/>
       <use xlink:href="#DejaVuSans-30" x="159.033203"/>
      </g>
     </g>
    </g>
    <g id="xtick_8">
     <g id="line2d_8">
      <g>
       <use xlink:href="#md274de8600" x="432.636883" y="302.2" style="stroke: #000000; stroke-width: 0.8"/>
      </g>
     </g>
     <g id="text_8">
      <!-- 27.5 -->
      <g transform="translate(419.834149 317.938203) scale(0.115 -0.115)">
       <use xlink:href="#DejaVuSans-32"/>
       <use xlink:href="#DejaVuSans-37" x="63.623047"/>
       <use xlink:href="#DejaVuSans-2e" x="127.246094"/>
       <use xlink:href="#DejaVuSans-35" x="159.033203"/>
      </g>
     </g>
    </g>
    <g id="text_9">
     <!-- time / min -->
     <g transform="translate(214.39375 333.447969) scale(0.12 -0.12)">
      <defs>
       <path id="DejaVuSans-Bold-74" d="M 1759 4494 
L 1759 3500 
L 2913 3500 
L 2913 2700 
L 1759 2700 
L 1759 1216 
Q 1759 972 1856 886 
Q 1953 800 2241 800 
L 2816 800 
L 2816 0 
L 1856 0 
Q 1194 0 917 276 
Q 641 553 641 1216 
L 641 2700 
L 84 2700 
L 84 3500 
L 641 3500 
L 641 4494 
L 1759 4494 
z
" transform="scale(0.015625)"/>
       <path id="DejaVuSans-Bold-69" d="M 538 3500 
L 1656 3500 
L 1656 0 
L 538 0 
L 538 3500 
z
M 538 4863 
L 1656 4863 
L 1656 3950 
L 538 3950 
L 538 4863 
z
" transform="scale(0.015625)"/>
       <path id="DejaVuSans-Bold-6d" d="M 3781 2919 
Q 3994 3244 4286 3414 
Q 4578 3584 4928 3584 
Q 5531 3584 5847 3212 
Q 6163 2841 6163 2131 
L 6163 0 
L 5038 0 
L 5038 1825 
Q 5041 1866 5042 1909 
Q 5044 1953 5044 2034 
Q 5044 2406 4934 2573 
Q 4825 2741 4581 2741 
Q 4263 2741 4089 2478 
Q 3916 2216 3909 1719 
L 3909 0 
L 2784 0 
L 2784 1825 
Q 2784 2406 2684 2573 
Q 2584 2741 2328 2741 
Q 2006 2741 1831 2477 
Q 1656 2213 1656 1722 
L 1656 0 
L 531 0 
L 531 3500 
L 1656 3500 
L 1656 2988 
Q 1863 3284 2130 3434 
Q 2397 3584 2719 3584 
Q 3081 3584 3359 3409 
Q 3638 3234 3781 2919 
z
" transform="scale(0.015625)"/>
       <path id="DejaVuSans-Bold-65" d="M 4031 1759 
L 4031 1441 
L 1416 1441 
Q 1456 1047 1700 850 
Q 1944 653 2381 653 
Q 2734 653 3104 758 
Q 3475 863 3866 1075 
L 3866 213 
Q 3469 63 3072 -14 
Q 2675 -91 2278 -91 
Q 1328 -91 801 392 
Q 275 875 275 1747 
Q 275 2603 792 3093 
Q 1309 3584 2216 3584 
Q 3041 3584 3536 3087 
Q 4031 2591 4031 1759 
z
M 2881 2131 
Q 2881 2450 2695 2645 
Q 2509 2841 2209 2841 
Q 1884 2841 1681 2658 
Q 1478 2475 1428 2131 
L 2881 2131 
z
" transform="scale(0.015625)"/>
       <path id="DejaVuSans-Bold-20" transform="scale(0.015625)"/>
       <path id="DejaVuSans-Bold-2f" d="M 1644 4666 
L 2338 4666 
L 691 -594 
L 0 -594 
L 1644 4666 
z
" transform="scale(0.015625)"/>
       <path id="DejaVuSans-Bold-6e" d="M 4056 2131 
L 4056 0 
L 2931 0 
L 2931 347 
L 2931 1631 
Q 2931 2084 2911 2256 
Q 2891 2428 2841 2509 
Q 2775 2619 2662 2680 
Q 2550 2741 2406 2741 
Q 2056 2741 1856 2470 
Q 1656 2200 1656 1722 
L 1656 0 
L 538 0 
L 538 3500 
L 1656 3500 
L 1656 2988 
Q 1909 3294 2193 3439 
Q 2478 3584 2822 3584 
Q 3428 3584 3742 3212 
Q 4056 2841 4056 2131 
z
" transform="scale(0.015625)"/>
      </defs>
      <use xlink:href="#DejaVuSans-Bold-74"/>
      <use xlink:href="#DejaVuSans-Bold-69" x="47.802734"/>
      <use xlink:href="#DejaVuSans-Bold-6d" x="82.080078"/>
      <use xlink:href="#DejaVuSans-Bold-65" x="186.279297"/>
      <use xlink:href="#DejaVuSans-Bold-20" x="254.101562"/>
      <use xlink:href="#DejaVuSans-Bold-2f" x="288.916016"/>
      <use xlink:href="#DejaVuSans-Bold-20" x="325.439453"/>
      <use xlink:href="#DejaVuSans-Bold-6d" x="360.253906"/>
      <use xlink:href="#DejaVuSans-Bold-69" x="464.453125"/>
      <use xlink:href="#DejaVuSans-Bold-6e" x="498.730469"/>
     </g>
    </g>
   </g>
   <g id="matplotlib.axis_2">
    <g id="ytick_1">
     <g id="line2d_9">
      <defs>
       <path id="m2288120e8f" d="M 0 0 
L -3.5 0 
" style="stroke: #000000; stroke-width: 0.8"/>
      </defs>
      <g>
       <use xlink:href="#m2288120e8f" x="47.18" y="288.954545" style="stroke: #000000; stroke-width: 0.8"/>
      </g>
     </g>
     <g id="text_10">
      <!-- 0 -->
      <g transform="translate(32.863125 293.323647) scale(0.115 -0.115)">
       <use xlink:href="#DejaVuSans-30"/>
      </g>
     </g>
    </g>
    <g id="ytick_2">
     <g id="line2d_10">
      <g>
       <use xlink:href="#m2288120e8f" x="47.18" y="235.972727" style="stroke: #000000; stroke-width: 0.8"/>
      </g>
     </g>
     <g id="text_11">
      <!-- 2 -->
      <g transform="translate(32.863125 240.341829) scale(0.115 -0.115)">
       <use xlink:href="#DejaVuSans-32"/>
      </g>
     </g>
    </g>
    <g id="ytick_3">
     <g id="line2d_11">
      <g>
       <use xlink:href="#m2288120e8f" x="47.18" y="182.990909" style="stroke: #000000; stroke-width: 0.8"/>
      </g>
     </g>
     <g id="text_12">
      <!-- 4 -->
      <g transform="translate(32.863125 187.360011) scale(0.115 -0.115)">
       <use xlink:href="#DejaVuSans-34"/>
      </g>
     </g>
    </g>
    <g id="ytick_4">
     <g id="line2d_12">
      <g>
       <use xlink:href="#m2288120e8f" x="47.18" y="130.009091" style="stroke: #000000; stroke-width: 0.8"/>
      </g>
     </g>
     <g id="text_13">
      <!-- 6 -->
      <g transform="translate(32.863125 134.378192) scale(0.115 -0.115)">
       <use xlink:href="#DejaVuSans-36"/>
      </g>
     </g>
    </g>
    <g id="ytick_5">
     <g id="line2d_13">
      <g>
       <use xlink:href="#m2288120e8f" x="47.18" y="77.027273" style="stroke: #000000; stroke-width: 0.8"/>
      </g>
     </g>
     <g id="text_14">
      <!-- 8 -->
      <g transform="translate(32.863125 81.396374) scale(0.115 -0.115)">
       <defs>
        <path id="DejaVuSans-38" d="M 2034 2216 
Q 1584 2216 1326 1975 
Q 1069 1734 1069 1313 
Q 1069 891 1326 650 
Q 1584 409 2034 409 
Q 2484 409 2743 651 
Q 3003 894 3003 1313 
Q 3003 1734 2745 1975 
Q 2488 2216 2034 2216 
z
M 1403 2484 
Q 997 2584 770 2862 
Q 544 3141 544 3541 
Q 544 4100 942 4425 
Q 1341 4750 2034 4750 
Q 2731 4750 3128 4425 
Q 3525 4100 3525 3541 
Q 3525 3141 3298 2862 
Q 3072 2584 2669 2484 
Q 3125 2378 3379 2068 
Q 3634 1759 3634 1313 
Q 3634 634 3220 271 
Q 2806 -91 2034 -91 
Q 1263 -91 848 271 
Q 434 634 434 1313 
Q 434 1759 690 2068 
Q 947 2378 1403 2484 
z
M 1172 3481 
Q 1172 3119 1398 2916 
Q 1625 2713 2034 2713 
Q 2441 2713 2670 2916 
Q 2900 3119 2900 3481 
Q 2900 3844 2670 4047 
Q 2441 4250 2034 4250 
Q 1625 4250 1398 4047 
Q 1172 3844 1172 3481 
z
" transform="scale(0.015625)"/>
       </defs>
       <use xlink:href="#DejaVuSans-38"/>
      </g>
     </g>
    </g>
    <g id="ytick_6">
     <g id="line2d_14">
      <g>
       <use xlink:href="#m2288120e8f" x="47.18" y="24.045455" style="stroke: #000000; stroke-width: 0.8"/>
      </g>
     </g>
     <g id="text_15">
      <!-- 10 -->
      <g transform="translate(25.54625 28.414556) scale(0.115 -0.115)">
       <defs>
        <path id="DejaVuSans-31" d="M 794 531 
L 1825 531 
L 1825 4091 
L 703 3866 
L 703 4441 
L 1819 4666 
L 2450 4666 
L 2450 531 
L 3481 531 
L 3481 0 
L 794 0 
L 794 531 
z
" transform="scale(0.015625)"/>
       </defs>
       <use xlink:href="#DejaVuSans-31"/>
       <use xlink:href="#DejaVuSans-30" x="63.623047"/>
      </g>
     </g>
    </g>
    <g id="text_16">
     <!-- intensity / a.u. -->
     <g transform="translate(18.956875 205.691562) rotate(-90) scale(0.12 -0.12)">
      <defs>
       <path id="DejaVuSans-Bold-73" d="M 3272 3391 
L 3272 2541 
Q 2913 2691 2578 2766 
Q 2244 2841 1947 2841 
Q 1628 2841 1473 2761 
Q 1319 2681 1319 2516 
Q 1319 2381 1436 2309 
Q 1553 2238 1856 2203 
L 2053 2175 
Q 2913 2066 3209 1816 
Q 3506 1566 3506 1031 
Q 3506 472 3093 190 
Q 2681 -91 1863 -91 
Q 1516 -91 1145 -36 
Q 775 19 384 128 
L 384 978 
Q 719 816 1070 734 
Q 1422 653 1784 653 
Q 2113 653 2278 743 
Q 2444 834 2444 1013 
Q 2444 1163 2330 1236 
Q 2216 1309 1875 1350 
L 1678 1375 
Q 931 1469 631 1722 
Q 331 1975 331 2491 
Q 331 3047 712 3315 
Q 1094 3584 1881 3584 
Q 2191 3584 2531 3537 
Q 2872 3491 3272 3391 
z
" transform="scale(0.015625)"/>
       <path id="DejaVuSans-Bold-79" d="M 78 3500 
L 1197 3500 
L 2138 1125 
L 2938 3500 
L 4056 3500 
L 2584 -331 
Q 2363 -916 2067 -1148 
Q 1772 -1381 1288 -1381 
L 641 -1381 
L 641 -647 
L 991 -647 
Q 1275 -647 1404 -556 
Q 1534 -466 1606 -231 
L 1638 -134 
L 78 3500 
z
" transform="scale(0.015625)"/>
       <path id="DejaVuSans-Bold-61" d="M 2106 1575 
Q 1756 1575 1579 1456 
Q 1403 1338 1403 1106 
Q 1403 894 1545 773 
Q 1688 653 1941 653 
Q 2256 653 2472 879 
Q 2688 1106 2688 1447 
L 2688 1575 
L 2106 1575 
z
M 3816 1997 
L 3816 0 
L 2688 0 
L 2688 519 
Q 2463 200 2181 54 
Q 1900 -91 1497 -91 
Q 953 -91 614 226 
Q 275 544 275 1050 
Q 275 1666 698 1953 
Q 1122 2241 2028 2241 
L 2688 2241 
L 2688 2328 
Q 2688 2594 2478 2717 
Q 2269 2841 1825 2841 
Q 1466 2841 1156 2769 
Q 847 2697 581 2553 
L 581 3406 
Q 941 3494 1303 3539 
Q 1666 3584 2028 3584 
Q 2975 3584 3395 3211 
Q 3816 2838 3816 1997 
z
" transform="scale(0.015625)"/>
       <path id="DejaVuSans-Bold-2e" d="M 653 1209 
L 1778 1209 
L 1778 0 
L 653 0 
L 653 1209 
z
" transform="scale(0.015625)"/>
       <path id="DejaVuSans-Bold-75" d="M 500 1363 
L 500 3500 
L 1625 3500 
L 1625 3150 
Q 1625 2866 1622 2436 
Q 1619 2006 1619 1863 
Q 1619 1441 1641 1255 
Q 1663 1069 1716 984 
Q 1784 875 1895 815 
Q 2006 756 2150 756 
Q 2500 756 2700 1025 
Q 2900 1294 2900 1772 
L 2900 3500 
L 4019 3500 
L 4019 0 
L 2900 0 
L 2900 506 
Q 2647 200 2364 54 
Q 2081 -91 1741 -91 
Q 1134 -91 817 281 
Q 500 653 500 1363 
z
" transform="scale(0.015625)"/>
      </defs>
      <use xlink:href="#DejaVuSans-Bold-69"/>
      <use xlink:href="#DejaVuSans-Bold-6e" x="34.277344"/>
      <use xlink:href="#DejaVuSans-Bold-74" x="105.46875"/>
      <use xlink:href="#DejaVuSans-Bold-65" x="153.271484"/>
      <use xlink:href="#DejaVuSans-Bold-6e" x="221.09375"/>
      <use xlink:href="#DejaVuSans-Bold-73" x="292.285156"/>
      <use xlink:href="#DejaVuSans-Bold-69" x="351.806641"/>
      <use xlink:href="#DejaVuSans-Bold-74" x="386.083984"/>
      <use xlink:href="#DejaVuSans-Bold-79" x="433.886719"/>
      <use xlink:href="#DejaVuSans-Bold-20" x="499.072266"/>
      <use xlink:href="#DejaVuSans-Bold-2f" x="533.886719"/>
      <use xlink:href="#DejaVuSans-Bold-20" x="570.410156"/>
      <use xlink:href="#DejaVuSans-Bold-61" x="605.224609"/>
      <use xlink:href="#DejaVuSans-Bold-2e" x="672.705078"/>
      <use xlink:href="#DejaVuSans-Bold-75" x="710.693359"/>
      <use xlink:href="#DejaVuSans-Bold-2e" x="781.884766"/>
     </g>
    </g>
   </g>
   <g id="patch_3">
    <path d="M 47.18 302.2 
L 47.18 10.8 
" style="fill: none; stroke: #000000; stroke-width: 0.8; stroke-linejoin: miter; stroke-linecap: square"/>
   </g>
   <g id="patch_4">
    <path d="M 450 302.2 
L 450 10.8 
" style="fill: none; stroke: #000000; stroke-width: 0.8; stroke-linejoin: miter; stroke-linecap: square"/>
   </g>
   <g id="patch_5">
    <path d="M 47.18 302.2 
L 450 302.2 
" style="fill: none; stroke: #000000; stroke-width: 0.8; stroke-linejoin: miter; stroke-linecap: square"/>
   </g>
   <g id="patch_6">
    <path d="M 47.18 10.8 
L 450 10.8 
" style="fill: none; stroke: #000000; stroke-width: 0.8; stroke-linejoin: miter; stroke-linecap: square"/>
   </g>
   <g id="legend_1">
    <g id="patch_7">
     <path d="M 54.18 33.478125 
L 108.705 33.478125 
Q 110.705 33.478125 110.705 31.478125 
L 110.705 17.8 
Q 110.705 15.8 108.705 15.8 
L 54.18 15.8 
Q 52.18 15.8 52.18 17.8 
L 52.18 31.478125 
Q 52.18 33.478125 54.18 33.478125 
z
" style="fill: #ffffff; opacity: 0.8; stroke: #cccccc; stroke-linejoin: miter"/>
    </g>
    <g id="PathCollection_2">
     <g>
      <use xlink:href="#m3349084706" x="66.18" y="24.773438" style="stroke: #000000; stroke-width: 1.5"/>
     </g>
    </g>
    <g id="text_17">
     <!-- data -->
     <g transform="translate(84.18 27.398438) scale(0.1 -0.1)">
      <defs>
       <path id="DejaVuSans-64" d="M 2906 2969 
L 2906 4863 
L 3481 4863 
L 3481 0 
L 2906 0 
L 2906 525 
Q 2725 213 2448 61 
Q 2172 -91 1784 -91 
Q 1150 -91 751 415 
Q 353 922 353 1747 
Q 353 2572 751 3078 
Q 1150 3584 1784 3584 
Q 2172 3584 2448 3432 
Q 2725 3281 2906 2969 
z
M 947 1747 
Q 947 1113 1208 752 
Q 1469 391 1925 391 
Q 2381 391 2643 752 
Q 2906 1113 2906 1747 
Q 2906 2381 2643 2742 
Q 2381 3103 1925 3103 
Q 1469 3103 1208 2742 
Q 947 2381 947 1747 
z
" transform="scale(0.015625)"/>
       <path id="DejaVuSans-61" d="M 2194 1759 
Q 1497 1759 1228 1600 
Q 959 1441 959 1056 
Q 959 750 1161 570 
Q 1363 391 1709 391 
Q 2188 391 2477 730 
Q 2766 1069 2766 1631 
L 2766 1759 
L 2194 1759 
z
M 3341 1997 
L 3341 0 
L 2766 0 
L 2766 531 
Q 2569 213 2275 61 
Q 1981 -91 1556 -91 
Q 1019 -91 701 211 
Q 384 513 384 1019 
Q 384 1609 779 1909 
Q 1175 2209 1959 2209 
L 2766 2209 
L 2766 2266 
Q 2766 2663 2505 2880 
Q 2244 3097 1772 3097 
Q 1472 3097 1187 3025 
Q 903 2953 641 2809 
L 641 3341 
Q 956 3463 1253 3523 
Q 1550 3584 1831 3584 
Q 2591 3584 2966 3190 
Q 3341 2797 3341 1997 
z
" transform="scale(0.015625)"/>
       <path id="DejaVuSans-74" d="M 1172 4494 
L 1172 3500 
L 2356 3500 
L 2356 3053 
L 1172 3053 
L 1172 1153 
Q 1172 725 1289 603 
Q 1406 481 1766 481 
L 2356 481 
L 2356 0 
L 1766 0 
Q 1100 0 847 248 
Q 594 497 594 1153 
L 594 3053 
L 172 3053 
L 172 3500 
L 594 3500 
L 594 4494 
L 1172 4494 
z
" transform="scale(0.015625)"/>
      </defs>
      <use xlink:href="#DejaVuSans-64"/>
      <use xlink:href="#DejaVuSans-61" x="63.476562"/>
      <use xlink:href="#DejaVuSans-74" x="124.755859"/>
      <use xlink:href="#DejaVuSans-61" x="163.964844"/>
     </g>
    </g>
   </g>
  </g>
 </g>
 <defs>
  <clipPath id="p7c1bd3b626">
   <rect x="47.18" y="10.8" width="402.82" height="291.4"/>
  </clipPath>
 </defs>
</svg>
