<?xml version="1.0" encoding="utf-8" standalone="no"?>
<!DOCTYPE svg PUBLIC "-//W3C//DTD SVG 1.1//EN"
  "http://www.w3.org/Graphics/SVG/1.1/DTD/svg11.dtd">
<svg xmlns:xlink="http://www.w3.org/1999/xlink" width="460.8pt" height="345.6pt" viewBox="0 0 460.8 345.6" xmlns="http://www.w3.org/2000/svg" version="1.1">
 <metadata>
  <rdf:RDF xmlns:dc="http://purl.org/dc/elements/1.1/" xmlns:cc="http://creativecommons.org/ns#" xmlns:rdf="http://www.w3.org/1999/02/22-rdf-syntax-ns#">
   <cc:Work>
    <dc:type rdf:resource="http://purl.org/dc/dcmitype/StillImage"/>
    <dc:date>2023-06-21T16:18:36.232857</dc:date>
    <dc:format>image/svg+xml</dc:format>
    <dc:creator>
     <cc:Agent>
      <dc:title>Matplotlib v3.7.1, https://matplotlib.org/</dc:title>
     </cc:Agent>
    </dc:creator>
   </cc:Work>
  </rdf:RDF>
 </metadata>
 <defs>
  <style type="text/css">*{stroke-linejoin: round; stroke-linecap: butt}</style>
 </defs>
 <g id="figure_1">
  <g id="patch_1">
   <path d="M 0 345.6 
L 460.8 345.6 
L 460.8 0 
L 0 0 
z
" style="fill: #ffffff"/>
  </g>
  <g id="axes_1">
   <g id="patch_2">
    <path d="M 47.18 302.2 
L 450 302.2 
L 450 10.8 
L 47.18 10.8 
z
" style="fill: #ffffff"/>
   </g>
   <g id="PathCollection_1">
    <defs>
     <path id="mdb5c44411f" d="M -3 3 
L 3 -3 
M -3 -3 
L 3 3 
" style="stroke: #000000; stroke-width: 1.5"/>
    </defs>
    <g clip-path="url(#p936c7190b8)">
     <use xlink:href="#mdb5c44411f" x="65.49" y="288.954545" style="stroke: #000000; stroke-width: 1.5"/>
     <use xlink:href="#mdb5c44411f" x="69.22735" y="257.417749" style="stroke: #000000; stroke-width: 1.5"/>
     <use xlink:href="#mdb5c44411f" x="72.96333" y="150.192641" style="stroke: #000000; stroke-width: 1.5"/>
     <use xlink:href="#mdb5c44411f" x="76.700679" y="106.041126" style="stroke: #000000; stroke-width: 1.5"/>
     <use xlink:href="#mdb5c44411f" x="80.436659" y="288.954545" style="stroke: #000000; stroke-width: 1.5"/>
     <use xlink:href="#mdb5c44411f" x="84.174009" y="225.880952" style="stroke: #000000; stroke-width: 1.5"/>
     <use xlink:href="#mdb5c44411f" x="87.911359" y="257.417749" style="stroke: #000000; stroke-width: 1.5"/>
     <use xlink:href="#mdb5c44411f" x="91.647339" y="257.417749" style="stroke: #000000; stroke-width: 1.5"/>
     <use xlink:href="#mdb5c44411f" x="95.384688" y="257.417749" style="stroke: #000000; stroke-width: 1.5"/>
     <use xlink:href="#mdb5c44411f" x="99.120668" y="213.266234" style="stroke: #000000; stroke-width: 1.5"/>
     <use xlink:href="#mdb5c44411f" x="102.858018" y="225.880952" style="stroke: #000000; stroke-width: 1.5"/>
     <use xlink:href="#mdb5c44411f" x="106.593998" y="225.880952" style="stroke: #000000; stroke-width: 1.5"/>
     <use xlink:href="#mdb5c44411f" x="110.331348" y="181.729437" style="stroke: #000000; stroke-width: 1.5"/>
     <use xlink:href="#mdb5c44411f" x="114.067327" y="257.417749" style="stroke: #000000; stroke-width: 1.5"/>
     <use xlink:href="#mdb5c44411f" x="117.804677" y="150.192641" style="stroke: #000000; stroke-width: 1.5"/>
     <use xlink:href="#mdb5c44411f" x="121.540657" y="257.417749" style="stroke: #000000; stroke-width: 1.5"/>
     <use xlink:href="#mdb5c44411f" x="125.278007" y="257.417749" style="stroke: #000000; stroke-width: 1.5"/>
     <use xlink:href="#mdb5c44411f" x="129.015357" y="137.577922" style="stroke: #000000; stroke-width: 1.5"/>
     <use xlink:href="#mdb5c44411f" x="132.751336" y="257.417749" style="stroke: #000000; stroke-width: 1.5"/>
     <use xlink:href="#mdb5c44411f" x="136.488686" y="181.729437" style="stroke: #000000; stroke-width: 1.5"/>
     <use xlink:href="#mdb5c44411f" x="140.224666" y="257.417749" style="stroke: #000000; stroke-width: 1.5"/>
     <use xlink:href="#mdb5c44411f" x="143.962016" y="175.422078" style="stroke: #000000; stroke-width: 1.5"/>
     <use xlink:href="#mdb5c44411f" x="147.697996" y="225.880952" style="stroke: #000000; stroke-width: 1.5"/>
     <use xlink:href="#mdb5c44411f" x="151.435345" y="150.192641" style="stroke: #000000; stroke-width: 1.5"/>
     <use xlink:href="#mdb5c44411f" x="155.171325" y="225.880952" style="stroke: #000000; stroke-width: 1.5"/>
     <use xlink:href="#mdb5c44411f" x="158.908675" y="288.954545" style="stroke: #000000; stroke-width: 1.5"/>
     <use xlink:href="#mdb5c44411f" x="162.646025" y="288.954545" style="stroke: #000000; stroke-width: 1.5"/>
     <use xlink:href="#mdb5c44411f" x="166.382004" y="213.266234" style="stroke: #000000; stroke-width: 1.5"/>
     <use xlink:href="#mdb5c44411f" x="170.119354" y="257.417749" style="stroke: #000000; stroke-width: 1.5"/>
     <use xlink:href="#mdb5c44411f" x="173.855334" y="257.417749" style="stroke: #000000; stroke-width: 1.5"/>
     <use xlink:href="#mdb5c44411f" x="177.592684" y="257.417749" style="stroke: #000000; stroke-width: 1.5"/>
     <use xlink:href="#mdb5c44411f" x="181.328664" y="257.417749" style="stroke: #000000; stroke-width: 1.5"/>
     <use xlink:href="#mdb5c44411f" x="185.066013" y="225.880952" style="stroke: #000000; stroke-width: 1.5"/>
     <use xlink:href="#mdb5c44411f" x="188.801993" y="225.880952" style="stroke: #000000; stroke-width: 1.5"/>
     <use xlink:href="#mdb5c44411f" x="192.539343" y="181.729437" style="stroke: #000000; stroke-width: 1.5"/>
     <use xlink:href="#mdb5c44411f" x="196.276693" y="213.266234" style="stroke: #000000; stroke-width: 1.5"/>
     <use xlink:href="#mdb5c44411f" x="200.012673" y="213.266234" style="stroke: #000000; stroke-width: 1.5"/>
     <use xlink:href="#mdb5c44411f" x="203.750022" y="181.729437" style="stroke: #000000; stroke-width: 1.5"/>
     <use xlink:href="#mdb5c44411f" x="207.486002" y="150.192641" style="stroke: #000000; stroke-width: 1.5"/>
     <use xlink:href="#mdb5c44411f" x="211.223352" y="181.729437" style="stroke: #000000; stroke-width: 1.5"/>
     <use xlink:href="#mdb5c44411f" x="214.959332" y="99.733766" style="stroke: #000000; stroke-width: 1.5"/>
     <use xlink:href="#mdb5c44411f" x="218.696682" y="288.954545" style="stroke: #000000; stroke-width: 1.5"/>
     <use xlink:href="#mdb5c44411f" x="222.432661" y="288.954545" style="stroke: #000000; stroke-width: 1.5"/>
     <use xlink:href="#mdb5c44411f" x="226.170011" y="257.417749" style="stroke: #000000; stroke-width: 1.5"/>
     <use xlink:href="#mdb5c44411f" x="229.905991" y="225.880952" style="stroke: #000000; stroke-width: 1.5"/>
     <use xlink:href="#mdb5c44411f" x="233.643341" y="181.729437" style="stroke: #000000; stroke-width: 1.5"/>
     <use xlink:href="#mdb5c44411f" x="237.380691" y="213.266234" style="stroke: #000000; stroke-width: 1.5"/>
     <use xlink:href="#mdb5c44411f" x="241.11667" y="143.885281" style="stroke: #000000; stroke-width: 1.5"/>
     <use xlink:href="#mdb5c44411f" x="244.85402" y="181.729437" style="stroke: #000000; stroke-width: 1.5"/>
     <use xlink:href="#mdb5c44411f" x="248.59" y="257.417749" style="stroke: #000000; stroke-width: 1.5"/>
     <use xlink:href="#mdb5c44411f" x="252.32735" y="194.344156" style="stroke: #000000; stroke-width: 1.5"/>
     <use xlink:href="#mdb5c44411f" x="256.06333" y="181.729437" style="stroke: #000000; stroke-width: 1.5"/>
     <use xlink:href="#mdb5c44411f" x="259.800679" y="257.417749" style="stroke: #000000; stroke-width: 1.5"/>
     <use xlink:href="#mdb5c44411f" x="263.536659" y="213.266234" style="stroke: #000000; stroke-width: 1.5"/>
     <use xlink:href="#mdb5c44411f" x="267.274009" y="225.880952" style="stroke: #000000; stroke-width: 1.5"/>
     <use xlink:href="#mdb5c44411f" x="271.011359" y="225.880952" style="stroke: #000000; stroke-width: 1.5"/>
     <use xlink:href="#mdb5c44411f" x="274.747339" y="225.880952" style="stroke: #000000; stroke-width: 1.5"/>
     <use xlink:href="#mdb5c44411f" x="278.484688" y="257.417749" style="stroke: #000000; stroke-width: 1.5"/>
     <use xlink:href="#mdb5c44411f" x="282.220668" y="24.045455" style="stroke: #000000; stroke-width: 1.5"/>
     <use xlink:href="#mdb5c44411f" x="285.958018" y="288.954545" style="stroke: #000000; stroke-width: 1.5"/>
     <use xlink:href="#mdb5c44411f" x="289.693998" y="106.041126" style="stroke: #000000; stroke-width: 1.5"/>
     <use xlink:href="#mdb5c44411f" x="293.431348" y="194.344156" style="stroke: #000000; stroke-width: 1.5"/>
     <use xlink:href="#mdb5c44411f" x="297.167327" y="288.954545" style="stroke: #000000; stroke-width: 1.5"/>
     <use xlink:href="#mdb5c44411f" x="300.904677" y="257.417749" style="stroke: #000000; stroke-width: 1.5"/>
     <use xlink:href="#mdb5c44411f" x="304.642027" y="213.266234" style="stroke: #000000; stroke-width: 1.5"/>
     <use xlink:href="#mdb5c44411f" x="308.378007" y="257.417749" style="stroke: #000000; stroke-width: 1.5"/>
     <use xlink:href="#mdb5c44411f" x="312.115357" y="257.417749" style="stroke: #000000; stroke-width: 1.5"/>
     <use xlink:href="#mdb5c44411f" x="315.851336" y="181.729437" style="stroke: #000000; stroke-width: 1.5"/>
     <use xlink:href="#mdb5c44411f" x="319.588686" y="257.417749" style="stroke: #000000; stroke-width: 1.5"/>
     <use xlink:href="#mdb5c44411f" x="323.324666" y="225.880952" style="stroke: #000000; stroke-width: 1.5"/>
     <use xlink:href="#mdb5c44411f" x="327.062016" y="181.729437" style="stroke: #000000; stroke-width: 1.5"/>
     <use xlink:href="#mdb5c44411f" x="330.797996" y="257.417749" style="stroke: #000000; stroke-width: 1.5"/>
     <use xlink:href="#mdb5c44411f" x="334.535345" y="257.417749" style="stroke: #000000; stroke-width: 1.5"/>
     <use xlink:href="#mdb5c44411f" x="338.272695" y="181.729437" style="stroke: #000000; stroke-width: 1.5"/>
     <use xlink:href="#mdb5c44411f" x="342.008675" y="288.954545" style="stroke: #000000; stroke-width: 1.5"/>
     <use xlink:href="#mdb5c44411f" x="345.746025" y="225.880952" style="stroke: #000000; stroke-width: 1.5"/>
     <use xlink:href="#mdb5c44411f" x="349.482004" y="194.344156" style="stroke: #000000; stroke-width: 1.5"/>
     <use xlink:href="#mdb5c44411f" x="353.219354" y="257.417749" style="stroke: #000000; stroke-width: 1.5"/>
     <use xlink:href="#mdb5c44411f" x="356.955334" y="257.417749" style="stroke: #000000; stroke-width: 1.5"/>
     <use xlink:href="#mdb5c44411f" x="360.692684" y="257.417749" style="stroke: #000000; stroke-width: 1.5"/>
     <use xlink:href="#mdb5c44411f" x="364.428664" y="257.417749" style="stroke: #000000; stroke-width: 1.5"/>
     <use xlink:href="#mdb5c44411f" x="368.166013" y="257.417749" style="stroke: #000000; stroke-width: 1.5"/>
     <use xlink:href="#mdb5c44411f" x="371.901993" y="225.880952" style="stroke: #000000; stroke-width: 1.5"/>
     <use xlink:href="#mdb5c44411f" x="375.639343" y="106.041126" style="stroke: #000000; stroke-width: 1.5"/>
     <use xlink:href="#mdb5c44411f" x="379.376693" y="288.954545" style="stroke: #000000; stroke-width: 1.5"/>
     <use xlink:href="#mdb5c44411f" x="383.112673" y="288.954545" style="stroke: #000000; stroke-width: 1.5"/>
     <use xlink:href="#mdb5c44411f" x="386.850022" y="257.417749" style="stroke: #000000; stroke-width: 1.5"/>
     <use xlink:href="#mdb5c44411f" x="390.586002" y="225.880952" style="stroke: #000000; stroke-width: 1.5"/>
     <use xlink:href="#mdb5c44411f" x="394.323352" y="225.880952" style="stroke: #000000; stroke-width: 1.5"/>
     <use xlink:href="#mdb5c44411f" x="398.059332" y="225.880952" style="stroke: #000000; stroke-width: 1.5"/>
     <use xlink:href="#mdb5c44411f" x="401.796682" y="257.417749" style="stroke: #000000; stroke-width: 1.5"/>
     <use xlink:href="#mdb5c44411f" x="405.532661" y="257.417749" style="stroke: #000000; stroke-width: 1.5"/>
     <use xlink:href="#mdb5c44411f" x="409.270011" y="137.577922" style="stroke: #000000; stroke-width: 1.5"/>
     <use xlink:href="#mdb5c44411f" x="413.007361" y="288.954545" style="stroke: #000000; stroke-width: 1.5"/>
     <use xlink:href="#mdb5c44411f" x="416.743341" y="257.417749" style="stroke: #000000; stroke-width: 1.5"/>
     <use xlink:href="#mdb5c44411f" x="420.480691" y="213.266234" style="stroke: #000000; stroke-width: 1.5"/>
     <use xlink:href="#mdb5c44411f" x="424.21667" y="257.417749" style="stroke: #000000; stroke-width: 1.5"/>
     <use xlink:href="#mdb5c44411f" x="427.95402" y="257.417749" style="stroke: #000000; stroke-width: 1.5"/>
     <use xlink:href="#mdb5c44411f" x="431.69" y="225.880952" style="stroke: #000000; stroke-width: 1.5"/>
    </g>
   </g>
   <g id="matplotlib.axis_1">
    <g id="xtick_1">
     <g id="line2d_1">
      <defs>
       <path id="m0cc3eb0daa" d="M 0 0 
L 0 3.5 
" style="stroke: #000000; stroke-width: 0.8"/>
      </defs>
      <g>
       <use xlink:href="#m0cc3eb0daa" x="105.83228" y="302.2" style="stroke: #000000; stroke-width: 0.8"/>
      </g>
     </g>
     <g id="text_1">
      <!-- 25 -->
      <g transform="translate(98.515405 317.938203) scale(0.115 -0.115)">
       <defs>
        <path id="DejaVuSans-32" d="M 1228 531 
L 3431 531 
L 3431 0 
L 469 0 
L 469 531 
Q 828 903 1448 1529 
Q 2069 2156 2228 2338 
Q 2531 2678 2651 2914 
Q 2772 3150 2772 3378 
Q 2772 3750 2511 3984 
Q 2250 4219 1831 4219 
Q 1534 4219 1204 4116 
Q 875 4013 500 3803 
L 500 4441 
Q 881 4594 1212 4672 
Q 1544 4750 1819 4750 
Q 2544 4750 2975 4387 
Q 3406 4025 3406 3419 
Q 3406 3131 3298 2873 
Q 3191 2616 2906 2266 
Q 2828 2175 2409 1742 
Q 1991 1309 1228 531 
z
" transform="scale(0.015625)"/>
        <path id="DejaVuSans-35" d="M 691 4666 
L 3169 4666 
L 3169 4134 
L 1269 4134 
L 1269 2991 
Q 1406 3038 1543 3061 
Q 1681 3084 1819 3084 
Q 2600 3084 3056 2656 
Q 3513 2228 3513 1497 
Q 3513 744 3044 326 
Q 2575 -91 1722 -91 
Q 1428 -91 1123 -41 
Q 819 9 494 109 
L 494 744 
Q 775 591 1075 516 
Q 1375 441 1709 441 
Q 2250 441 2565 725 
Q 2881 1009 2881 1497 
Q 2881 1984 2565 2268 
Q 2250 2553 1709 2553 
Q 1456 2553 1204 2497 
Q 953 2441 691 2322 
L 691 4666 
z
" transform="scale(0.015625)"/>
       </defs>
       <use xlink:href="#DejaVuSans-32"/>
       <use xlink:href="#DejaVuSans-35" x="63.623047"/>
      </g>
     </g>
    </g>
    <g id="xtick_2">
     <g id="line2d_2">
      <g>
       <use xlink:href="#m0cc3eb0daa" x="188.032055" y="302.2" style="stroke: #000000; stroke-width: 0.8"/>
      </g>
     </g>
     <g id="text_2">
      <!-- 26 -->
      <g transform="translate(180.71518 317.938203) scale(0.115 -0.115)">
       <defs>
        <path id="DejaVuSans-36" d="M 2113 2584 
Q 1688 2584 1439 2293 
Q 1191 2003 1191 1497 
Q 1191 994 1439 701 
Q 1688 409 2113 409 
Q 2538 409 2786 701 
Q 3034 994 3034 1497 
Q 3034 2003 2786 2293 
Q 2538 2584 2113 2584 
z
M 3366 4563 
L 3366 3988 
Q 3128 4100 2886 4159 
Q 2644 4219 2406 4219 
Q 1781 4219 1451 3797 
Q 1122 3375 1075 2522 
Q 1259 2794 1537 2939 
Q 1816 3084 2150 3084 
Q 2853 3084 3261 2657 
Q 3669 2231 3669 1497 
Q 3669 778 3244 343 
Q 2819 -91 2113 -91 
Q 1303 -91 875 529 
Q 447 1150 447 2328 
Q 447 3434 972 4092 
Q 1497 4750 2381 4750 
Q 2619 4750 2861 4703 
Q 3103 4656 3366 4563 
z
" transform="scale(0.015625)"/>
       </defs>
       <use xlink:href="#DejaVuSans-32"/>
       <use xlink:href="#DejaVuSans-36" x="63.623047"/>
      </g>
     </g>
    </g>
    <g id="xtick_3">
     <g id="line2d_3">
      <g>
       <use xlink:href="#m0cc3eb0daa" x="270.231831" y="302.2" style="stroke: #000000; stroke-width: 0.8"/>
      </g>
     </g>
     <g id="text_3">
      <!-- 27 -->
      <g transform="translate(262.914956 317.938203) scale(0.115 -0.115)">
       <defs>
        <path id="DejaVuSans-37" d="M 525 4666 
L 3525 4666 
L 3525 4397 
L 1831 0 
L 1172 0 
L 2766 4134 
L 525 4134 
L 525 4666 
z
" transform="scale(0.015625)"/>
       </defs>
       <use xlink:href="#DejaVuSans-32"/>
       <use xlink:href="#DejaVuSans-37" x="63.623047"/>
      </g>
     </g>
    </g>
    <g id="xtick_4">
     <g id="line2d_4">
      <g>
       <use xlink:href="#m0cc3eb0daa" x="352.431606" y="302.2" style="stroke: #000000; stroke-width: 0.8"/>
      </g>
     </g>
     <g id="text_4">
      <!-- 28 -->
      <g transform="translate(345.114731 317.938203) scale(0.115 -0.115)">
       <defs>
        <path id="DejaVuSans-38" d="M 2034 2216 
Q 1584 2216 1326 1975 
Q 1069 1734 1069 1313 
Q 1069 891 1326 650 
Q 1584 409 2034 409 
Q 2484 409 2743 651 
Q 3003 894 3003 1313 
Q 3003 1734 2745 1975 
Q 2488 2216 2034 2216 
z
M 1403 2484 
Q 997 2584 770 2862 
Q 544 3141 544 3541 
Q 544 4100 942 4425 
Q 1341 4750 2034 4750 
Q 2731 4750 3128 4425 
Q 3525 4100 3525 3541 
Q 3525 3141 3298 2862 
Q 3072 2584 2669 2484 
Q 3125 2378 3379 2068 
Q 3634 1759 3634 1313 
Q 3634 634 3220 271 
Q 2806 -91 2034 -91 
Q 1263 -91 848 271 
Q 434 634 434 1313 
Q 434 1759 690 2068 
Q 947 2378 1403 2484 
z
M 1172 3481 
Q 1172 3119 1398 2916 
Q 1625 2713 2034 2713 
Q 2441 2713 2670 2916 
Q 2900 3119 2900 3481 
Q 2900 3844 2670 4047 
Q 2441 4250 2034 4250 
Q 1625 4250 1398 4047 
Q 1172 3844 1172 3481 
z
" transform="scale(0.015625)"/>
       </defs>
       <use xlink:href="#DejaVuSans-32"/>
       <use xlink:href="#DejaVuSans-38" x="63.623047"/>
      </g>
     </g>
    </g>
    <g id="xtick_5">
     <g id="line2d_5">
      <g>
       <use xlink:href="#m0cc3eb0daa" x="434.631382" y="302.2" style="stroke: #000000; stroke-width: 0.8"/>
      </g>
     </g>
     <g id="text_5">
      <!-- 29 -->
      <g transform="translate(427.314507 317.938203) scale(0.115 -0.115)">
       <defs>
        <path id="DejaVuSans-39" d="M 703 97 
L 703 672 
Q 941 559 1184 500 
Q 1428 441 1663 441 
Q 2288 441 2617 861 
Q 2947 1281 2994 2138 
Q 2813 1869 2534 1725 
Q 2256 1581 1919 1581 
Q 1219 1581 811 2004 
Q 403 2428 403 3163 
Q 403 3881 828 4315 
Q 1253 4750 1959 4750 
Q 2769 4750 3195 4129 
Q 3622 3509 3622 2328 
Q 3622 1225 3098 567 
Q 2575 -91 1691 -91 
Q 1453 -91 1209 -44 
Q 966 3 703 97 
z
M 1959 2075 
Q 2384 2075 2632 2365 
Q 2881 2656 2881 3163 
Q 2881 3666 2632 3958 
Q 2384 4250 1959 4250 
Q 1534 4250 1286 3958 
Q 1038 3666 1038 3163 
Q 1038 2656 1286 2365 
Q 1534 2075 1959 2075 
z
" transform="scale(0.015625)"/>
       </defs>
       <use xlink:href="#DejaVuSans-32"/>
       <use xlink:href="#DejaVuSans-39" x="63.623047"/>
      </g>
     </g>
    </g>
    <g id="text_6">
     <!-- time / min -->
     <g transform="translate(214.39375 333.447969) scale(0.12 -0.12)">
      <defs>
       <path id="DejaVuSans-Bold-74" d="M 1759 4494 
L 1759 3500 
L 2913 3500 
L 2913 2700 
L 1759 2700 
L 1759 1216 
Q 1759 972 1856 886 
Q 1953 800 2241 800 
L 2816 800 
L 2816 0 
L 1856 0 
Q 1194 0 917 276 
Q 641 553 641 1216 
L 641 2700 
L 84 2700 
L 84 3500 
L 641 3500 
L 641 4494 
L 1759 4494 
z
" transform="scale(0.015625)"/>
       <path id="DejaVuSans-Bold-69" d="M 538 3500 
L 1656 3500 
L 1656 0 
L 538 0 
L 538 3500 
z
M 538 4863 
L 1656 4863 
L 1656 3950 
L 538 3950 
L 538 4863 
z
" transform="scale(0.015625)"/>
       <path id="DejaVuSans-Bold-6d" d="M 3781 2919 
Q 3994 3244 4286 3414 
Q 4578 3584 4928 3584 
Q 5531 3584 5847 3212 
Q 6163 2841 6163 2131 
L 6163 0 
L 5038 0 
L 5038 1825 
Q 5041 1866 5042 1909 
Q 5044 1953 5044 2034 
Q 5044 2406 4934 2573 
Q 4825 2741 4581 2741 
Q 4263 2741 4089 2478 
Q 3916 2216 3909 1719 
L 3909 0 
L 2784 0 
L 2784 1825 
Q 2784 2406 2684 2573 
Q 2584 2741 2328 2741 
Q 2006 2741 1831 2477 
Q 1656 2213 1656 1722 
L 1656 0 
L 531 0 
L 531 3500 
L 1656 3500 
L 1656 2988 
Q 1863 3284 2130 3434 
Q 2397 3584 2719 3584 
Q 3081 3584 3359 3409 
Q 3638 3234 3781 2919 
z
" transform="scale(0.015625)"/>
       <path id="DejaVuSans-Bold-65" d="M 4031 1759 
L 4031 1441 
L 1416 1441 
Q 1456 1047 1700 850 
Q 1944 653 2381 653 
Q 2734 653 3104 758 
Q 3475 863 3866 1075 
L 3866 213 
Q 3469 63 3072 -14 
Q 2675 -91 2278 -91 
Q 1328 -91 801 392 
Q 275 875 275 1747 
Q 275 2603 792 3093 
Q 1309 3584 2216 3584 
Q 3041 3584 3536 3087 
Q 4031 2591 4031 1759 
z
M 2881 2131 
Q 2881 2450 2695 2645 
Q 2509 2841 2209 2841 
Q 1884 2841 1681 2658 
Q 1478 2475 1428 2131 
L 2881 2131 
z
" transform="scale(0.015625)"/>
       <path id="DejaVuSans-Bold-20" transform="scale(0.015625)"/>
       <path id="DejaVuSans-Bold-2f" d="M 1644 4666 
L 2338 4666 
L 691 -594 
L 0 -594 
L 1644 4666 
z
" transform="scale(0.015625)"/>
       <path id="DejaVuSans-Bold-6e" d="M 4056 2131 
L 4056 0 
L 2931 0 
L 2931 347 
L 2931 1631 
Q 2931 2084 2911 2256 
Q 2891 2428 2841 2509 
Q 2775 2619 2662 2680 
Q 2550 2741 2406 2741 
Q 2056 2741 1856 2470 
Q 1656 2200 1656 1722 
L 1656 0 
L 538 0 
L 538 3500 
L 1656 3500 
L 1656 2988 
Q 1909 3294 2193 3439 
Q 2478 3584 2822 3584 
Q 3428 3584 3742 3212 
Q 4056 2841 4056 2131 
z
" transform="scale(0.015625)"/>
      </defs>
      <use xlink:href="#DejaVuSans-Bold-74"/>
      <use xlink:href="#DejaVuSans-Bold-69" x="47.802734"/>
      <use xlink:href="#DejaVuSans-Bold-6d" x="82.080078"/>
      <use xlink:href="#DejaVuSans-Bold-65" x="186.279297"/>
      <use xlink:href="#DejaVuSans-Bold-20" x="254.101562"/>
      <use xlink:href="#DejaVuSans-Bold-2f" x="288.916016"/>
      <use xlink:href="#DejaVuSans-Bold-20" x="325.439453"/>
      <use xlink:href="#DejaVuSans-Bold-6d" x="360.253906"/>
      <use xlink:href="#DejaVuSans-Bold-69" x="464.453125"/>
      <use xlink:href="#DejaVuSans-Bold-6e" x="498.730469"/>
     </g>
    </g>
   </g>
   <g id="matplotlib.axis_2">
    <g id="ytick_1">
     <g id="line2d_6">
      <defs>
       <path id="ma6d1c9deaf" d="M 0 0 
L -3.5 0 
" style="stroke: #000000; stroke-width: 0.8"/>
      </defs>
      <g>
       <use xlink:href="#ma6d1c9deaf" x="47.18" y="288.954545" style="stroke: #000000; stroke-width: 0.8"/>
      </g>
     </g>
     <g id="text_7">
      <!-- 0 -->
      <g transform="translate(32.863125 293.323647) scale(0.115 -0.115)">
       <defs>
        <path id="DejaVuSans-30" d="M 2034 4250 
Q 1547 4250 1301 3770 
Q 1056 3291 1056 2328 
Q 1056 1369 1301 889 
Q 1547 409 2034 409 
Q 2525 409 2770 889 
Q 3016 1369 3016 2328 
Q 3016 3291 2770 3770 
Q 2525 4250 2034 4250 
z
M 2034 4750 
Q 2819 4750 3233 4129 
Q 3647 3509 3647 2328 
Q 3647 1150 3233 529 
Q 2819 -91 2034 -91 
Q 1250 -91 836 529 
Q 422 1150 422 2328 
Q 422 3509 836 4129 
Q 1250 4750 2034 4750 
z
" transform="scale(0.015625)"/>
       </defs>
       <use xlink:href="#DejaVuSans-30"/>
      </g>
     </g>
    </g>
    <g id="ytick_2">
     <g id="line2d_7">
      <g>
       <use xlink:href="#ma6d1c9deaf" x="47.18" y="225.880952" style="stroke: #000000; stroke-width: 0.8"/>
      </g>
     </g>
     <g id="text_8">
      <!-- 20 -->
      <g transform="translate(25.54625 230.250054) scale(0.115 -0.115)">
       <use xlink:href="#DejaVuSans-32"/>
       <use xlink:href="#DejaVuSans-30" x="63.623047"/>
      </g>
     </g>
    </g>
    <g id="ytick_3">
     <g id="line2d_8">
      <g>
       <use xlink:href="#ma6d1c9deaf" x="47.18" y="162.807359" style="stroke: #000000; stroke-width: 0.8"/>
      </g>
     </g>
     <g id="text_9">
      <!-- 40 -->
      <g transform="translate(25.54625 167.176461) scale(0.115 -0.115)">
       <defs>
        <path id="DejaVuSans-34" d="M 2419 4116 
L 825 1625 
L 2419 1625 
L 2419 4116 
z
M 2253 4666 
L 3047 4666 
L 3047 1625 
L 3713 1625 
L 3713 1100 
L 3047 1100 
L 3047 0 
L 2419 0 
L 2419 1100 
L 313 1100 
L 313 1709 
L 2253 4666 
z
" transform="scale(0.015625)"/>
       </defs>
       <use xlink:href="#DejaVuSans-34"/>
       <use xlink:href="#DejaVuSans-30" x="63.623047"/>
      </g>
     </g>
    </g>
    <g id="ytick_4">
     <g id="line2d_9">
      <g>
       <use xlink:href="#ma6d1c9deaf" x="47.18" y="99.733766" style="stroke: #000000; stroke-width: 0.8"/>
      </g>
     </g>
     <g id="text_10">
      <!-- 60 -->
      <g transform="translate(25.54625 104.102868) scale(0.115 -0.115)">
       <use xlink:href="#DejaVuSans-36"/>
       <use xlink:href="#DejaVuSans-30" x="63.623047"/>
      </g>
     </g>
    </g>
    <g id="ytick_5">
     <g id="line2d_10">
      <g>
       <use xlink:href="#ma6d1c9deaf" x="47.18" y="36.660173" style="stroke: #000000; stroke-width: 0.8"/>
      </g>
     </g>
     <g id="text_11">
      <!-- 80 -->
      <g transform="translate(25.54625 41.029275) scale(0.115 -0.115)">
       <use xlink:href="#DejaVuSans-38"/>
       <use xlink:href="#DejaVuSans-30" x="63.623047"/>
      </g>
     </g>
    </g>
    <g id="text_12">
     <!-- intensity / a.u. -->
     <g transform="translate(18.956875 205.691562) rotate(-90) scale(0.12 -0.12)">
      <defs>
       <path id="DejaVuSans-Bold-73" d="M 3272 3391 
L 3272 2541 
Q 2913 2691 2578 2766 
Q 2244 2841 1947 2841 
Q 1628 2841 1473 2761 
Q 1319 2681 1319 2516 
Q 1319 2381 1436 2309 
Q 1553 2238 1856 2203 
L 2053 2175 
Q 2913 2066 3209 1816 
Q 3506 1566 3506 1031 
Q 3506 472 3093 190 
Q 2681 -91 1863 -91 
Q 1516 -91 1145 -36 
Q 775 19 384 128 
L 384 978 
Q 719 816 1070 734 
Q 1422 653 1784 653 
Q 2113 653 2278 743 
Q 2444 834 2444 1013 
Q 2444 1163 2330 1236 
Q 2216 1309 1875 1350 
L 1678 1375 
Q 931 1469 631 1722 
Q 331 1975 331 2491 
Q 331 3047 712 3315 
Q 1094 3584 1881 3584 
Q 2191 3584 2531 3537 
Q 2872 3491 3272 3391 
z
" transform="scale(0.015625)"/>
       <path id="DejaVuSans-Bold-79" d="M 78 3500 
L 1197 3500 
L 2138 1125 
L 2938 3500 
L 4056 3500 
L 2584 -331 
Q 2363 -916 2067 -1148 
Q 1772 -1381 1288 -1381 
L 641 -1381 
L 641 -647 
L 991 -647 
Q 1275 -647 1404 -556 
Q 1534 -466 1606 -231 
L 1638 -134 
L 78 3500 
z
" transform="scale(0.015625)"/>
       <path id="DejaVuSans-Bold-61" d="M 2106 1575 
Q 1756 1575 1579 1456 
Q 1403 1338 1403 1106 
Q 1403 894 1545 773 
Q 1688 653 1941 653 
Q 2256 653 2472 879 
Q 2688 1106 2688 1447 
L 2688 1575 
L 2106 1575 
z
M 3816 1997 
L 3816 0 
L 2688 0 
L 2688 519 
Q 2463 200 2181 54 
Q 1900 -91 1497 -91 
Q 953 -91 614 226 
Q 275 544 275 1050 
Q 275 1666 698 1953 
Q 1122 2241 2028 2241 
L 2688 2241 
L 2688 2328 
Q 2688 2594 2478 2717 
Q 2269 2841 1825 2841 
Q 1466 2841 1156 2769 
Q 847 2697 581 2553 
L 581 3406 
Q 941 3494 1303 3539 
Q 1666 3584 2028 3584 
Q 2975 3584 3395 3211 
Q 3816 2838 3816 1997 
z
" transform="scale(0.015625)"/>
       <path id="DejaVuSans-Bold-2e" d="M 653 1209 
L 1778 1209 
L 1778 0 
L 653 0 
L 653 1209 
z
" transform="scale(0.015625)"/>
       <path id="DejaVuSans-Bold-75" d="M 500 1363 
L 500 3500 
L 1625 3500 
L 1625 3150 
Q 1625 2866 1622 2436 
Q 1619 2006 1619 1863 
Q 1619 1441 1641 1255 
Q 1663 1069 1716 984 
Q 1784 875 1895 815 
Q 2006 756 2150 756 
Q 2500 756 2700 1025 
Q 2900 1294 2900 1772 
L 2900 3500 
L 4019 3500 
L 4019 0 
L 2900 0 
L 2900 506 
Q 2647 200 2364 54 
Q 2081 -91 1741 -91 
Q 1134 -91 817 281 
Q 500 653 500 1363 
z
" transform="scale(0.015625)"/>
      </defs>
      <use xlink:href="#DejaVuSans-Bold-69"/>
      <use xlink:href="#DejaVuSans-Bold-6e" x="34.277344"/>
      <use xlink:href="#DejaVuSans-Bold-74" x="105.46875"/>
      <use xlink:href="#DejaVuSans-Bold-65" x="153.271484"/>
      <use xlink:href="#DejaVuSans-Bold-6e" x="221.09375"/>
      <use xlink:href="#DejaVuSans-Bold-73" x="292.285156"/>
      <use xlink:href="#DejaVuSans-Bold-69" x="351.806641"/>
      <use xlink:href="#DejaVuSans-Bold-74" x="386.083984"/>
      <use xlink:href="#DejaVuSans-Bold-79" x="433.886719"/>
      <use xlink:href="#DejaVuSans-Bold-20" x="499.072266"/>
      <use xlink:href="#DejaVuSans-Bold-2f" x="533.886719"/>
      <use xlink:href="#DejaVuSans-Bold-20" x="570.410156"/>
      <use xlink:href="#DejaVuSans-Bold-61" x="605.224609"/>
      <use xlink:href="#DejaVuSans-Bold-2e" x="672.705078"/>
      <use xlink:href="#DejaVuSans-Bold-75" x="710.693359"/>
      <use xlink:href="#DejaVuSans-Bold-2e" x="781.884766"/>
     </g>
    </g>
   </g>
   <g id="patch_3">
    <path d="M 47.18 302.2 
L 47.18 10.8 
" style="fill: none; stroke: #000000; stroke-width: 0.8; stroke-linejoin: miter; stroke-linecap: square"/>
   </g>
   <g id="patch_4">
    <path d="M 450 302.2 
L 450 10.8 
" style="fill: none; stroke: #000000; stroke-width: 0.8; stroke-linejoin: miter; stroke-linecap: square"/>
   </g>
   <g id="patch_5">
    <path d="M 47.18 302.2 
L 450 302.2 
" style="fill: none; stroke: #000000; stroke-width: 0.8; stroke-linejoin: miter; stroke-linecap: square"/>
   </g>
   <g id="patch_6">
    <path d="M 47.18 10.8 
L 450 10.8 
" style="fill: none; stroke: #000000; stroke-width: 0.8; stroke-linejoin: miter; stroke-linecap: square"/>
   </g>
   <g id="legend_1">
    <g id="patch_7">
     <path d="M 388.475 33.478125 
L 443 33.478125 
Q 445 33.478125 445 31.478125 
L 445 17.8 
Q 445 15.8 443 15.8 
L 388.475 15.8 
Q 386.475 15.8 386.475 17.8 
L 386.475 31.478125 
Q 386.475 33.478125 388.475 33.478125 
z
" style="fill: #ffffff; opacity: 0.8; stroke: #cccccc; stroke-linejoin: miter"/>
    </g>
    <g id="PathCollection_2">
     <g>
      <use xlink:href="#mdb5c44411f" x="400.475" y="24.773438" style="stroke: #000000; stroke-width: 1.5"/>
     </g>
    </g>
    <g id="text_13">
     <!-- data -->
     <g transform="translate(418.475 27.398438) scale(0.1 -0.1)">
      <defs>
       <path id="DejaVuSans-64" d="M 2906 2969 
L 2906 4863 
L 3481 4863 
L 3481 0 
L 2906 0 
L 2906 525 
Q 2725 213 2448 61 
Q 2172 -91 1784 -91 
Q 1150 -91 751 415 
Q 353 922 353 1747 
Q 353 2572 751 3078 
Q 1150 3584 1784 3584 
Q 2172 3584 2448 3432 
Q 2725 3281 2906 2969 
z
M 947 1747 
Q 947 1113 1208 752 
Q 1469 391 1925 391 
Q 2381 391 2643 752 
Q 2906 1113 2906 1747 
Q 2906 2381 2643 2742 
Q 2381 3103 1925 3103 
Q 1469 3103 1208 2742 
Q 947 2381 947 1747 
z
" transform="scale(0.015625)"/>
       <path id="DejaVuSans-61" d="M 2194 1759 
Q 1497 1759 1228 1600 
Q 959 1441 959 1056 
Q 959 750 1161 570 
Q 1363 391 1709 391 
Q 2188 391 2477 730 
Q 2766 1069 2766 1631 
L 2766 1759 
L 2194 1759 
z
M 3341 1997 
L 3341 0 
L 2766 0 
L 2766 531 
Q 2569 213 2275 61 
Q 1981 -91 1556 -91 
Q 1019 -91 701 211 
Q 384 513 384 1019 
Q 384 1609 779 1909 
Q 1175 2209 1959 2209 
L 2766 2209 
L 2766 2266 
Q 2766 2663 2505 2880 
Q 2244 3097 1772 3097 
Q 1472 3097 1187 3025 
Q 903 2953 641 2809 
L 641 3341 
Q 956 3463 1253 3523 
Q 1550 3584 1831 3584 
Q 2591 3584 2966 3190 
Q 3341 2797 3341 1997 
z
" transform="scale(0.015625)"/>
       <path id="DejaVuSans-74" d="M 1172 4494 
L 1172 3500 
L 2356 3500 
L 2356 3053 
L 1172 3053 
L 1172 1153 
Q 1172 725 1289 603 
Q 1406 481 1766 481 
L 2356 481 
L 2356 0 
L 1766 0 
Q 1100 0 847 248 
Q 594 497 594 1153 
L 594 3053 
L 172 3053 
L 172 3500 
L 594 3500 
L 594 4494 
L 1172 4494 
z
" transform="scale(0.015625)"/>
      </defs>
      <use xlink:href="#DejaVuSans-64"/>
      <use xlink:href="#DejaVuSans-61" x="63.476562"/>
      <use xlink:href="#DejaVuSans-74" x="124.755859"/>
      <use xlink:href="#DejaVuSans-61" x="163.964844"/>
     </g>
    </g>
   </g>
  </g>
 </g>
 <defs>
  <clipPath id="p936c7190b8">
   <rect x="47.18" y="10.8" width="402.82" height="291.4"/>
  </clipPath>
 </defs>
</svg>
